<svg id="visual" viewBox="0 0 900 600" width="900" height="600" xmlns="http://www.w3.org/2000/svg" xmlns:xlink="http://www.w3.org/1999/xlink" version="1.1"><rect x="0" y="0" width="900" height="600" fill="#001220"></rect><defs><linearGradient id="grad1_0" x1="33.3%" y1="100%" x2="100%" y2="0%"><stop offset="20%" stop-color="#5e2f98" stop-opacity="1"></stop><stop offset="80%" stop-color="#5e2f98" stop-opacity="1"></stop></linearGradient></defs><defs><linearGradient id="grad1_1" x1="33.3%" y1="100%" x2="100%" y2="0%"><stop offset="20%" stop-color="#5e2f98" stop-opacity="1"></stop><stop offset="80%" stop-color="#373185" stop-opacity="1"></stop></linearGradient></defs><defs><linearGradient id="grad1_2" x1="33.3%" y1="100%" x2="100%" y2="0%"><stop offset="20%" stop-color="#112d6e" stop-opacity="1"></stop><stop offset="80%" stop-color="#373185" stop-opacity="1"></stop></linearGradient></defs><defs><linearGradient id="grad1_3" x1="33.3%" y1="100%" x2="100%" y2="0%"><stop offset="20%" stop-color="#112d6e" stop-opacity="1"></stop><stop offset="80%" stop-color="#002655" stop-opacity="1"></stop></linearGradient></defs><defs><linearGradient id="grad1_4" x1="33.3%" y1="100%" x2="100%" y2="0%"><stop offset="20%" stop-color="#001d3a" stop-opacity="1"></stop><stop offset="80%" stop-color="#002655" stop-opacity="1"></stop></linearGradient></defs><defs><linearGradient id="grad1_5" x1="33.3%" y1="100%" x2="100%" y2="0%"><stop offset="20%" stop-color="#001d3a" stop-opacity="1"></stop><stop offset="80%" stop-color="#001220" stop-opacity="1"></stop></linearGradient></defs><defs><linearGradient id="grad2_0" x1="0%" y1="100%" x2="66.7%" y2="0%"><stop offset="20%" stop-color="#5e2f98" stop-opacity="1"></stop><stop offset="80%" stop-color="#5e2f98" stop-opacity="1"></stop></linearGradient></defs><defs><linearGradient id="grad2_1" x1="0%" y1="100%" x2="66.7%" y2="0%"><stop offset="20%" stop-color="#373185" stop-opacity="1"></stop><stop offset="80%" stop-color="#5e2f98" stop-opacity="1"></stop></linearGradient></defs><defs><linearGradient id="grad2_2" x1="0%" y1="100%" x2="66.7%" y2="0%"><stop offset="20%" stop-color="#373185" stop-opacity="1"></stop><stop offset="80%" stop-color="#112d6e" stop-opacity="1"></stop></linearGradient></defs><defs><linearGradient id="grad2_3" x1="0%" y1="100%" x2="66.7%" y2="0%"><stop offset="20%" stop-color="#002655" stop-opacity="1"></stop><stop offset="80%" stop-color="#112d6e" stop-opacity="1"></stop></linearGradient></defs><defs><linearGradient id="grad2_4" x1="0%" y1="100%" x2="66.7%" y2="0%"><stop offset="20%" stop-color="#002655" stop-opacity="1"></stop><stop offset="80%" stop-color="#001d3a" stop-opacity="1"></stop></linearGradient></defs><defs><linearGradient id="grad2_5" x1="0%" y1="100%" x2="66.7%" y2="0%"><stop offset="20%" stop-color="#001220" stop-opacity="1"></stop><stop offset="80%" stop-color="#001d3a" stop-opacity="1"></stop></linearGradient></defs><g transform="translate(900, 600)"><path d="M-168 0C-178.1 -13 -188.2 -26 -185.7 -36.9C-183.1 -47.8 -167.9 -56.6 -158.9 -65.8C-149.9 -75 -147.1 -84.6 -144.7 -96.7C-142.3 -108.7 -140.2 -123.3 -132.2 -132.2C-124.2 -141.1 -110.3 -144.3 -97.8 -146.3C-85.2 -148.3 -74.1 -149.1 -63.9 -154.3C-53.8 -159.5 -44.6 -169.1 -34.1 -171.6C-23.7 -174.2 -11.8 -169.6 0 -165L0 0Z" fill="#00182d"></path><path d="M-140 0C-148.4 -10.8 -156.8 -21.7 -154.7 -30.8C-152.6 -39.9 -139.9 -47.2 -132.4 -54.9C-124.9 -62.5 -122.6 -70.5 -120.6 -80.6C-118.5 -90.6 -116.8 -102.8 -110.2 -110.2C-103.5 -117.6 -91.9 -120.3 -81.5 -121.9C-71 -123.6 -61.7 -124.2 -53.3 -128.6C-44.8 -132.9 -37.2 -140.9 -28.5 -143C-19.7 -145.1 -9.9 -141.3 0 -137.5L0 0Z" fill="#002247"></path><path d="M-112 0C-118.7 -8.7 -125.5 -17.3 -123.8 -24.6C-122.1 -31.9 -111.9 -37.8 -105.9 -43.9C-99.9 -50 -98.1 -56.4 -96.5 -64.4C-94.8 -72.5 -93.5 -82.2 -88.2 -88.2C-82.8 -94.1 -73.6 -96.2 -65.2 -97.6C-56.8 -98.9 -49.4 -99.4 -42.6 -102.9C-35.8 -106.3 -29.7 -112.7 -22.8 -114.4C-15.8 -116.1 -7.9 -113.1 0 -110L0 0Z" fill="#002a62"></path><path d="M-84 0C-89.1 -6.5 -94.1 -13 -92.8 -18.5C-91.6 -23.9 -84 -28.3 -79.5 -32.9C-75 -37.5 -73.5 -42.3 -72.3 -48.3C-71.1 -54.4 -70.1 -61.7 -66.1 -66.1C-62.1 -70.6 -55.2 -72.2 -48.9 -73.2C-42.6 -74.2 -37 -74.5 -32 -77.1C-26.9 -79.7 -22.3 -84.6 -17.1 -85.8C-11.8 -87.1 -5.9 -84.8 0 -82.5L0 0Z" fill="#242f7a"></path><path d="M-56 0C-59.4 -4.3 -62.7 -8.7 -61.9 -12.3C-61 -15.9 -56 -18.9 -53 -21.9C-50 -25 -49 -28.2 -48.2 -32.2C-47.4 -36.2 -46.7 -41.1 -44.1 -44.1C-41.4 -47 -36.8 -48.1 -32.6 -48.8C-28.4 -49.4 -24.7 -49.7 -21.3 -51.4C-17.9 -53.2 -14.9 -56.4 -11.4 -57.2C-7.9 -58.1 -3.9 -56.5 0 -55L0 0Z" fill="#4a318f"></path><path d="M-28 0C-29.7 -2.2 -31.4 -4.3 -30.9 -6.2C-30.5 -8 -28 -9.4 -26.5 -11C-25 -12.5 -24.5 -14.1 -24.1 -16.1C-23.7 -18.1 -23.4 -20.6 -22 -22C-20.7 -23.5 -18.4 -24.1 -16.3 -24.4C-14.2 -24.7 -12.3 -24.8 -10.7 -25.7C-9 -26.6 -7.4 -28.2 -5.7 -28.6C-3.9 -29 -2 -28.3 0 -27.5L0 0Z" fill="#5e2f98"></path></g><g transform="translate(0, 0)"><path d="M185 0C180.6 11.5 176.2 23 171.6 34.1C167.1 45.3 162.4 56 155.2 64.3C148 72.6 138.3 78.5 135.5 90.6C132.8 102.6 137 120.8 132.9 132.9C128.9 145 116.6 151 105.2 157.4C93.8 163.7 83.3 170.5 71.6 172.8C59.8 175.1 46.9 172.9 34.7 174.6C22.6 176.2 11.3 181.6 0 187L0 0Z" fill="#00182d"></path><path d="M154.2 0C150.5 9.6 146.8 19.2 143 28.5C139.2 37.7 135.3 46.7 129.3 53.6C123.3 60.5 115.2 65.4 112.9 75.5C110.6 85.5 114.2 100.7 110.8 110.8C107.4 120.9 97.1 125.9 87.6 131.2C78.1 136.5 69.4 142.1 59.6 144C49.9 145.9 39.1 144.1 28.9 145.5C18.8 146.8 9.4 151.3 0 155.8L0 0Z" fill="#002247"></path><path d="M123.3 0C120.4 7.7 117.5 15.3 114.4 22.8C111.4 30.2 108.3 37.3 103.5 42.9C98.7 48.4 92.2 52.3 90.4 60.4C88.5 68.4 91.3 80.6 88.6 88.6C85.9 96.7 77.7 100.7 70.1 104.9C62.5 109.2 55.5 113.6 47.7 115.2C39.9 116.7 31.2 115.3 23.2 116.4C15.1 117.5 7.5 121.1 0 124.7L0 0Z" fill="#002a62"></path><path d="M92.5 0C90.3 5.8 88.1 11.5 85.8 17.1C83.5 22.6 81.2 28 77.6 32.1C74 36.3 69.1 39.3 67.8 45.3C66.4 51.3 68.5 60.4 66.5 66.5C64.4 72.5 58.3 75.5 52.6 78.7C46.9 81.9 41.6 85.2 35.8 86.4C29.9 87.5 23.4 86.5 17.4 87.3C11.3 88.1 5.6 90.8 0 93.5L0 0Z" fill="#242f7a"></path><path d="M61.7 0C60.2 3.8 58.7 7.7 57.2 11.4C55.7 15.1 54.1 18.7 51.7 21.4C49.3 24.2 46.1 26.2 45.2 30.2C44.3 34.2 45.7 40.3 44.3 44.3C43 48.3 38.9 50.3 35.1 52.5C31.3 54.6 27.8 56.8 23.9 57.6C19.9 58.4 15.6 57.6 11.6 58.2C7.5 58.7 3.8 60.5 0 62.3L0 0Z" fill="#4a318f"></path><path d="M30.8 0C30.1 1.9 29.4 3.8 28.6 5.7C27.8 7.5 27.1 9.3 25.9 10.7C24.7 12.1 23 13.1 22.6 15.1C22.1 17.1 22.8 20.1 22.2 22.2C21.5 24.2 19.4 25.2 17.5 26.2C15.6 27.3 13.9 28.4 11.9 28.8C10 29.2 7.8 28.8 5.8 29.1C3.8 29.4 1.9 30.3 0 31.2L0 0Z" fill="#5e2f98"></path></g></svg>