<svg id="visual" viewBox="0 0 900 600" width="900" height="600" xmlns="http://www.w3.org/2000/svg" xmlns:xlink="http://www.w3.org/1999/xlink" version="1.1"><rect x="0" y="0" width="900" height="600" fill="#7b53ac"></rect><path d="M0 147L7.8 151.2C15.7 155.3 31.3 163.7 47.2 168.7C63 173.7 79 175.3 94.8 172C110.7 168.7 126.3 160.3 142 155.5C157.7 150.7 173.3 149.3 189.2 145.8C205 142.3 221 136.7 236.8 133C252.7 129.3 268.3 127.7 284.2 134.7C300 141.7 316 157.3 331.8 165.8C347.7 174.3 363.3 175.7 379 175.8C394.7 176 410.3 175 426.2 170.7C442 166.3 458 158.7 473.8 151.5C489.7 144.3 505.3 137.7 521 142C536.7 146.3 552.3 161.7 568.2 167.7C584 173.7 600 170.3 615.8 168.7C631.7 167 647.3 167 663.2 165C679 163 695 159 710.8 160C726.7 161 742.3 167 758 169.3C773.7 171.7 789.3 170.3 805.2 167.8C821 165.3 837 161.7 852.8 153.5C868.7 145.3 884.3 132.7 892.2 126.3L900 120L900 0L892.2 0C884.3 0 868.7 0 852.8 0C837 0 821 0 805.2 0C789.3 0 773.7 0 758 0C742.3 0 726.7 0 710.8 0C695 0 679 0 663.2 0C647.3 0 631.7 0 615.8 0C600 0 584 0 568.2 0C552.3 0 536.7 0 521 0C505.3 0 489.7 0 473.8 0C458 0 442 0 426.2 0C410.3 0 394.7 0 379 0C363.3 0 347.7 0 331.8 0C316 0 300 0 284.2 0C268.3 0 252.7 0 236.8 0C221 0 205 0 189.2 0C173.3 0 157.7 0 142 0C126.3 0 110.7 0 94.8 0C79 0 63 0 47.2 0C31.3 0 15.7 0 7.8 0L0 0Z" fill="#49006b" stroke-linecap="round" stroke-linejoin="miter"></path></svg>